<?xml version="1.0" encoding="UTF-8" standalone="no"?>
<svg
   xmlns:dc="http://purl.org/dc/elements/1.1/"
   xmlns:cc="http://creativecommons.org/ns#"
   xmlns:rdf="http://www.w3.org/1999/02/22-rdf-syntax-ns#"
   xmlns:svg="http://www.w3.org/2000/svg"
   xmlns="http://www.w3.org/2000/svg"
   xmlns:sodipodi="http://sodipodi.sourceforge.net/DTD/sodipodi-0.dtd"
   xmlns:inkscape="http://www.inkscape.org/namespaces/inkscape"
   version="1.0"
   width="100%"
   height="100%"
   viewBox="0 0 473.73172 443.70154"
   preserveAspectRatio="xMidYMid meet"
   id="svg34"
   sodipodi:docname="logo.svg"
   inkscape:version="0.92.3 (2405546, 2018-03-11)">
  <defs
     id="defs38" />
  <sodipodi:namedview
     pagecolor="#ffffff"
     bordercolor="#666666"
     borderopacity="1"
     objecttolerance="10"
     gridtolerance="10"
     guidetolerance="10"
     inkscape:pageopacity="0"
     inkscape:pageshadow="2"
     inkscape:window-width="1708"
     inkscape:window-height="881"
     id="namedview36"
     showgrid="false"
     inkscape:zoom="0.35902637"
     inkscape:cx="-887.03955"
     inkscape:cy="693.36821"
     inkscape:window-x="2391"
     inkscape:window-y="-9"
     inkscape:window-maximized="1"
     inkscape:current-layer="svg34"
     fit-margin-top="0"
     fit-margin-left="0"
     fit-margin-right="0"
     fit-margin-bottom="0" />
  <metadata
     id="metadata2">
Created by potrace 1.13, written by Peter Selinger 2001-2015
<rdf:RDF>
  <cc:Work
     rdf:about="">
    <dc:format>image/svg+xml</dc:format>
    <dc:type
       rdf:resource="http://purl.org/dc/dcmitype/StillImage" />
    <dc:title></dc:title>
  </cc:Work>
</rdf:RDF>
</metadata>
  <g
     transform="matrix(0.1,0,0,-0.1,-7,472)"
     id="g32"
     style="fill:#000000;stroke:none">
    <path
       d="m 2290,4685 c 19,-19 36,-35 39,-35 3,0 -10,16 -29,35 -19,19 -36,35 -39,35 -3,0 10,-16 29,-35 z"
       id="path4"
       inkscape:connector-curvature="0" />
    <path
       d="M 1163,3588 70,2495 1165,1399 2260,303 l 699,700 c 385,384 704,696 709,693 5,-3 15,1 22,9 7,8 9,15 4,15 -4,0 14,22 41,50 26,27 51,47 55,45 8,-5 392,379 386,386 -3,3 59,69 137,147 l 142,142 -1095,1095 c -602,602 -1097,1095 -1100,1095 -3,0 -497,-492 -1097,-1092 z M 4090,2174 c -179,-177 -326,-321 -328,-319 -2,2 138,147 312,322 L 4390,2495 3325,3560 2260,4625 1194,3560 128,2495 1042,1585 C 1949,682 2276,350 2259,350 c -4,0 -491,482 -1082,1071 L 103,2491 1174,3566 c 589,592 1073,1080 1075,1086 2,5 490,-478 1085,-1073 L 4416,2495 Z M 2608,4148 c 189,-189 440,-447 557,-574 118,-126 316,-328 442,-446 125,-119 322,-311 436,-425 l 208,-209 -83,-79 c -46,-43 -171,-166 -279,-272 -107,-106 -198,-191 -201,-188 -3,3 -15,-9 -26,-27 -12,-18 -57,-69 -101,-113 l -81,-80 v 53 52 h -380 -380 v 675 675 h -105 -105 v -760 -760 l 455,-2 456,-3 -338,-344 C 2744,976 2411,653 2318,579 c -27,-21 -58,-39 -68,-39 -24,0 -270,239 -488,473 -94,101 -282,289 -418,418 l -247,234 76,3 77,3 v 294 295 h 238 c 254,0 339,8 429,40 124,43 229,146 270,263 28,81 25,272 -6,350 -48,121 -158,215 -298,253 -60,16 -116,19 -455,22 l -388,3 v -733 l -1,-733 -381,383 -381,384 360,361 c 198,199 643,649 989,999 346,351 631,637 634,638 2,0 159,-154 348,-342 z M 1841,2994 c 66,-31 114,-77 139,-136 19,-45 22,-65 18,-147 -5,-114 -25,-161 -90,-214 -73,-60 -118,-67 -405,-67 h -253 v 296 295 l 273,-3 c 252,-3 275,-5 318,-24 z m 2329,-797 c 0,-1 -87,-88 -192,-192 l -193,-190 190,193 c 176,178 195,197 195,189 z M 3605,1688 C 3127,1195 2221,299 2317,415 c 57,69 1356,1365 1368,1365 5,0 -31,-42 -80,-92 z"
       id="path6"
       inkscape:connector-curvature="0" />
    <path
       d="m 2415,4560 c 27,-27 51,-50 54,-50 3,0 -17,23 -44,50 -27,28 -51,50 -54,50 -3,0 17,-22 44,-50 z"
       id="path8"
       inkscape:connector-curvature="0" />
    <path
       d="m 1450,3913 -185,-188 188,185 c 174,172 192,190 184,190 -1,0 -85,-84 -187,-187 z"
       id="path10"
       inkscape:connector-curvature="0" />
    <path
       d="m 3100,3875 c 19,-19 36,-35 39,-35 3,0 -10,16 -29,35 -19,19 -36,35 -39,35 -3,0 10,-16 29,-35 z"
       id="path12"
       inkscape:connector-curvature="0" />
    <path
       d="m 3470,3495 c 52,-52 97,-95 100,-95 2,0 -38,43 -90,95 -52,52 -97,95 -100,95 -2,0 38,-43 90,-95 z"
       id="path14"
       inkscape:connector-curvature="0" />
    <path
       d="m 3685,3280 c 27,-27 51,-50 54,-50 3,0 -17,23 -44,50 -27,28 -51,50 -54,50 -3,0 17,-22 44,-50 z"
       id="path16"
       inkscape:connector-curvature="0" />
    <path
       d="m 750,1775 c 69,-69 127,-125 130,-125 2,0 -51,56 -120,125 -69,69 -127,125 -130,125 -2,0 51,-56 120,-125 z"
       id="path18"
       inkscape:connector-curvature="0" />
    <path
       d="m 4637,1806 c -186,-77 -392,-258 -536,-473 -46,-68 -104,-141 -129,-163 -54,-46 -123,-72 -190,-71 -113,1 -183,44 -299,184 -32,38 -93,38 -122,1 -22,-28 -27,-69 -12,-93 7,-10 -18,-50 -86,-140 -93,-125 -95,-126 -131,-123 -76,6 -180,-67 -223,-156 -75,-158 30,-290 177,-223 110,50 190,209 152,302 l -14,34 86,116 86,116 53,-48 c 153,-137 354,-176 516,-101 l 65,31 75,-47 c 41,-26 75,-50 75,-53 0,-3 -17,-13 -37,-23 -140,-66 -327,-249 -442,-430 -47,-75 -40,-131 19,-156 49,-20 79,0 145,96 69,102 218,256 296,307 72,46 145,75 212,83 l 53,6 13,-66 c 18,-88 18,-173 2,-272 -17,-99 -11,-130 32,-150 39,-19 78,-7 102,29 42,65 58,297 30,431 -30,144 -114,278 -250,403 -98,90 -105,109 -53,170 129,154 271,267 411,328 81,35 108,74 88,123 -13,31 -47,52 -84,52 -12,0 -48,-11 -80,-24 z"
       id="path20"
       inkscape:connector-curvature="0" />
    <path
       d="m 3785,1647 c -22,-12 -50,-38 -63,-57 -20,-30 -23,-45 -20,-101 4,-82 35,-129 103,-154 174,-67 317,134 198,276 -52,62 -145,77 -218,36 z"
       id="path22"
       inkscape:connector-curvature="0" />
    <path
       d="m 1330,1208 c 41,-45 50,-53 50,-45 0,2 -21,23 -47,47 l -48,45 z"
       id="path24"
       inkscape:connector-curvature="0" />
    <path
       d="m 2940,953 -255,-258 258,255 c 141,140 257,256 257,257 0,8 -23,-15 -260,-254 z"
       id="path26"
       inkscape:connector-curvature="0" />
    <path
       d="m 1555,980 c 27,-27 51,-50 54,-50 3,0 -17,23 -44,50 -27,28 -51,50 -54,50 -3,0 17,-22 44,-50 z"
       id="path28"
       inkscape:connector-curvature="0" />
    <path
       d="m 2369,393 c -13,-16 -12,-17 4,-4 16,13 21,21 13,21 -2,0 -10,-8 -17,-17 z"
       id="path30"
       inkscape:connector-curvature="0" />
  </g>
</svg>
