<?xml version="1.0" encoding="UTF-8" standalone="no"?>
<svg
   xmlns:dc="http://purl.org/dc/elements/1.1/"
   xmlns:cc="http://creativecommons.org/ns#"
   xmlns:rdf="http://www.w3.org/1999/02/22-rdf-syntax-ns#"
   xmlns:svg="http://www.w3.org/2000/svg"
   xmlns="http://www.w3.org/2000/svg"
   xmlns:sodipodi="http://sodipodi.sourceforge.net/DTD/sodipodi-0.dtd"
   xmlns:inkscape="http://www.inkscape.org/namespaces/inkscape"
   version="1.0"
   width="100%"
   height="100%"
   viewBox="0 0 1040 870"
   preserveAspectRatio="xMidYMid meet"
   id="svg110"
   sodipodi:docname="logo.svg"
   inkscape:version="0.92.3 (2405546, 2018-03-11)">
  <defs
     id="defs114" />
  <sodipodi:namedview
     pagecolor="#ffffff"
     bordercolor="#666666"
     borderopacity="1"
     objecttolerance="10"
     gridtolerance="10"
     guidetolerance="10"
     inkscape:pageopacity="0"
     inkscape:pageshadow="2"
     inkscape:window-width="1920"
     inkscape:window-height="1001"
     id="namedview112"
     showgrid="false"
     inkscape:zoom="0.57543862"
     inkscape:cx="519.77666"
     inkscape:cy="142.708"
     inkscape:window-x="-9"
     inkscape:window-y="-9"
     inkscape:window-maximized="1"
     inkscape:current-layer="svg110" />
  <metadata
     id="metadata2">
Created by potrace 1.13, written by Peter Selinger 2001-2015
<rdf:RDF>
  <cc:Work
     rdf:about="">
    <dc:format>image/svg+xml</dc:format>
    <dc:type
       rdf:resource="http://purl.org/dc/dcmitype/StillImage" />
  </cc:Work>
</rdf:RDF>
</metadata>
  <g
     transform="matrix(0.1,0,0,-0.1,0,870)"
     id="g108"
     style="fill:#000000;stroke:none">
    <path
       d="m 5528,8693 c 7,-3 16,-2 19,1 4,3 -2,6 -13,5 -11,0 -14,-3 -6,-6 z"
       id="path4"
       inkscape:connector-curvature="0" />
    <path
       d="m 5588,8693 c 12,-2 32,-2 45,0 12,2 2,4 -23,4 -25,0 -35,-2 -22,-4 z"
       id="path6"
       inkscape:connector-curvature="0" />
    <path
       d="m 5920,8680 c 8,-5 29,-9 45,-8 51,2 155,-13 162,-24 4,-8 -23,-9 -88,-4 -405,28 -705,16 -1067,-45 -68,-11 -74,-11 -86,7 -8,10 -18,15 -22,11 -5,-4 -2,-12 6,-17 18,-11 -9,-22 -115,-45 -238,-51 -855,-289 -855,-330 0,-8 -21,-26 -47,-41 -155,-87 -235,-138 -225,-142 6,-2 31,10 54,26 58,39 212,122 227,122 7,0 24,9 38,20 14,11 35,20 46,20 11,0 52,15 91,34 300,143 725,260 1106,306 147,17 158,20 175,36 13,13 45,16 191,16 97,0 178,-3 182,-6 3,-3 -45,-6 -106,-6 -61,0 -113,-4 -116,-8 -2,-4 92,-8 211,-7 119,0 199,3 179,6 -44,7 -59,19 -25,20 62,2 140,-3 166,-11 23,-7 18,-9 -32,-10 l -60,-2 40,-13 40,-12 -60,-8 c -572,-68 -999,-193 -1514,-441 -522,-252 -797,-449 -1282,-920 -502,-486 -691,-716 -908,-1105 -110,-197 -192,-390 -291,-691 -23,-71 -44,-128 -47,-128 -8,0 9,134 18,145 5,5 9,16 9,25 -1,31 -30,-23 -30,-56 0,-18 -5,-36 -10,-39 -10,-6 -15,15 -11,45 9,74 25,154 55,267 10,35 18,78 19,95 2,18 8,42 15,53 12,18 13,18 7,-8 -24,-115 -44,-220 -48,-262 l -6,-50 15,45 c 8,25 19,63 24,85 23,102 93,352 114,410 8,22 15,46 16,53 0,7 17,49 39,95 50,108 82,207 85,265 3,54 33,122 54,122 9,0 12,6 8,15 -6,16 23,82 79,180 19,33 38,67 42,75 6,13 24,42 85,132 10,15 18,31 18,37 0,5 3,11 8,13 4,2 25,28 47,58 21,30 58,79 83,108 24,28 40,52 35,52 -4,1 3,7 17,14 13,8 32,29 42,47 10,19 18,30 18,25 0,-5 9,-1 20,9 21,19 28,41 8,29 -7,-4 -8,-3 -4,5 4,6 12,9 17,6 5,-4 14,5 21,19 6,14 15,26 20,26 4,0 8,7 8,15 0,8 -4,15 -9,15 -13,0 -127,-134 -146,-171 -9,-16 -20,-29 -26,-29 -5,0 -12,-7 -16,-16 -6,-16 -30,-47 -76,-95 -15,-17 -39,-49 -53,-71 -15,-23 -30,-46 -35,-52 -60,-77 -165,-253 -174,-294 -3,-18 -14,-36 -23,-41 -25,-13 -71,-96 -49,-88 11,4 14,2 10,-9 -3,-8 -11,-13 -18,-10 -8,3 -10,-4 -7,-19 2,-12 -2,-26 -9,-30 -9,-6 -11,-2 -6,14 9,38 -3,17 -40,-66 -101,-224 -179,-436 -182,-493 -3,-64 -2,-73 10,-81 16,-9 5,-24 -18,-24 -16,0 -48,-119 -88,-325 -9,-47 -20,-105 -25,-130 -21,-105 -22,-140 -6,-140 9,0 16,9 16,20 0,11 5,20 11,20 6,0 8,-16 4,-42 -12,-96 -25,-268 -25,-351 0,-79 -24,-312 -35,-345 -7,-19 6,-72 16,-66 5,3 10,31 11,62 1,36 3,45 5,24 2,-18 9,-30 14,-27 12,8 12,132 -1,140 -12,8 -13,72 -1,79 4,3 9,58 10,123 2,154 22,266 77,443 173,551 450,1031 845,1465 146,161 226,241 234,234 2,-3 -13,-25 -35,-49 -22,-24 -40,-47 -40,-51 0,-4 -36,-47 -80,-94 -44,-48 -77,-91 -74,-97 4,-6 2,-8 -4,-5 -5,4 -36,-23 -68,-60 -92,-107 -95,-116 -11,-29 l 78,81 -76,-120 c -43,-66 -94,-145 -116,-175 -109,-157 -277,-477 -384,-735 -57,-139 -158,-435 -201,-590 -42,-151 -99,-469 -119,-655 -4,-36 -12,-68 -19,-72 -6,-4 -7,-8 -1,-8 10,0 10,-259 -1,-269 -3,-3 -10,1 -15,9 -8,11 -9,7 -4,-15 4,-16 8,-37 9,-45 1,-8 5,-26 9,-40 6,-27 18,-315 12,-309 -16,17 -66,335 -110,689 -25,209 -16,608 20,900 51,417 179,843 367,1231 103,211 169,324 280,482 39,56 87,124 105,151 57,83 102,138 219,266 93,102 216,225 226,225 3,0 10,4 15,9 5,5 2,6 -6,1 -10,-5 -12,-4 -7,4 4,6 12,9 17,5 13,-8 50,25 43,38 -3,4 -2,7 3,6 10,-3 114,74 108,80 -2,3 -11,-1 -20,-8 -9,-7 -18,-10 -21,-7 -3,3 7,14 23,24 15,9 39,29 53,43 14,14 41,37 60,52 19,15 30,27 24,28 -22,1 -257,-201 -399,-344 -287,-288 -542,-631 -695,-935 -211,-421 -316,-746 -394,-1221 -64,-390 -76,-875 -31,-1250 9,-74 22,-184 30,-245 7,-64 13,-93 15,-70 2,39 2,39 10,10 4,-16 18,-75 30,-130 12,-55 34,-143 48,-195 35,-133 51,-211 51,-240 -1,-21 -2,-20 -10,9 -6,18 -12,31 -15,29 -2,-3 8,-45 22,-94 14,-49 34,-120 44,-159 10,-38 21,-79 25,-90 4,-13 1,-11 -8,5 -8,14 -27,62 -42,108 -45,136 -40,85 6,-65 68,-222 196,-554 291,-754 l 46,-96 -69,-6 c -176,-15 -305,-137 -317,-298 -4,-53 -9,-68 -26,-79 -11,-8 -55,-34 -97,-60 l -76,-46 -179,-23 -179,-24 -60,42 c -33,23 -66,53 -72,66 -18,34 -60,40 -113,16 -25,-11 -46,-18 -48,-16 -2,2 6,22 18,45 61,119 19,258 -97,327 -41,24 -59,28 -118,28 -80,-1 -129,-21 -182,-77 -102,-106 -80,-283 44,-367 29,-19 51,-36 49,-38 -6,-7 -207,-60 -311,-84 l -100,-22 -120,78 c -65,42 -130,81 -142,86 -41,15 -77,-12 -101,-76 -36,-95 -37,-93 112,-244 l 134,-135 122,3 122,2 -5,-23 c -64,-273 -71,-311 -54,-340 16,-27 14,-82 -3,-93 -4,-2 -47,0 -96,5 -68,7 -109,18 -168,45 C 83,976 71,967 25,766 -2,648 -2,648 18,621 c 41,-56 168,-51 207,9 11,16 25,30 30,30 6,0 73,-25 150,-56 91,-36 149,-54 165,-50 15,2 88,40 165,83 123,69 140,82 153,115 8,21 20,38 26,38 5,0 68,-19 140,-42 l 129,-43 147,-155 c 81,-85 180,-192 220,-238 39,-45 83,-85 96,-88 40,-10 69,19 139,137 81,138 84,165 23,209 -56,41 -83,46 -125,26 -20,-9 -36,-16 -37,-14 -28,43 -324,437 -335,445 -9,6 -62,35 -118,65 -57,29 -103,59 -103,66 0,13 79,263 85,270 2,2 48,-6 103,-19 l 100,-22 178,74 c 118,49 205,92 254,126 41,29 108,73 149,99 70,45 75,47 105,35 77,-32 130,-41 183,-31 115,21 220,94 260,180 10,22 20,40 23,40 3,0 18,-21 35,-48 46,-72 169,-234 273,-360 324,-389 757,-724 1225,-947 405,-193 738,-286 1232,-345 184,-21 191,-22 280,-44 102,-25 275,-46 510,-63 224,-16 898,-5 980,16 22,6 94,22 160,36 501,103 996,311 1435,604 238,159 481,379 739,670 51,58 103,119 115,137 11,18 42,61 68,96 61,84 110,168 98,168 -6,0 -10,-3 -10,-7 -1,-5 -12,-21 -27,-38 -25,-29 -25,-29 -9,-2 36,61 49,77 60,77 11,0 56,64 115,162 14,23 20,45 16,60 -4,14 0,31 10,43 14,19 14,18 4,-10 -9,-27 -8,-28 5,-15 32,33 104,185 194,410 44,109 172,510 172,537 0,9 6,44 14,77 39,167 76,407 75,488 -1,36 1,70 4,75 3,4 8,94 11,198 11,346 17,414 32,408 11,-4 14,14 14,98 0,57 -4,98 -8,91 -5,-7 -7,27 -6,75 2,64 0,74 -4,38 -6,-46 -8,-41 -20,67 -13,124 -53,369 -72,439 -7,26 -8,44 -2,48 6,4 6,33 1,76 -40,313 -103,554 -241,910 -11,28 -23,63 -28,78 -27,86 -226,460 -330,620 -149,228 -218,316 -414,522 -101,107 -116,107 -18,0 217,-239 268,-304 414,-525 112,-171 292,-530 360,-720 82,-230 169,-529 167,-577 0,-10 -13,16 -29,57 -114,300 -287,627 -468,885 -35,50 -104,149 -154,220 -138,196 -230,306 -460,546 -262,273 -556,528 -725,629 -32,19 -124,76 -204,127 -81,51 -175,107 -210,125 -36,18 -78,43 -94,54 -85,61 -516,245 -617,264 -54,11 -68,17 -68,29 0,13 249,-40 335,-70 72,-25 81,-27 101,-12 18,13 17,14 -10,7 -23,-5 -27,-4 -21,6 6,10 4,12 -8,7 -10,-4 -17,-2 -17,4 0,6 -9,9 -20,6 -10,-3 -20,-1 -22,5 -2,5 -19,10 -38,11 -19,1 -37,5 -40,8 -8,9 -194,51 -239,53 -22,1 -43,5 -47,9 -3,3 -19,3 -35,0 -16,-3 -29,-2 -29,3 0,5 -15,10 -32,10 -32,2 -264,51 -343,73 -42,12 -76,19 -215,44 -213,39 -563,70 -530,47 z m 308,-29 c 9,-6 67,-17 127,-26 168,-25 225,-37 232,-48 7,-11 -10,-9 -182,21 -60,11 -145,23 -188,27 -75,7 -90,18 -37,28 14,2 26,5 28,6 1,0 10,-3 20,-8 z m -400,-38 c -10,-2 -28,-2 -40,0 -13,2 -5,4 17,4 22,1 32,-1 23,-4 z m 325,-20 c -13,-2 -33,-2 -45,0 -13,2 -3,4 22,4 25,0 35,-2 23,-4 z m -986,-9 c -3,-3 -12,-4 -19,-1 -8,3 -5,6 6,6 11,1 17,-2 13,-5 z m 1050,0 c -3,-3 -12,-4 -19,-1 -8,3 -5,6 6,6 11,1 17,-2 13,-5 z m 58,-4 c 13,-5 14,-9 5,-9 -8,0 -24,4 -35,9 -13,5 -14,9 -5,9 8,0 24,-4 35,-9 z m -1308,-26 c -3,-3 -12,-4 -19,-1 -8,3 -5,6 6,6 11,1 17,-2 13,-5 z m 1268,-9 c 22,-3 67,-7 100,-10 81,-6 112,-12 235,-41 58,-13 125,-29 150,-34 85,-20 370,-108 382,-119 8,-7 -96,-6 -109,2 -17,10 -212,48 -344,67 -392,56 -818,50 -1221,-20 -139,-23 -317,-63 -407,-91 -35,-10 -66,-17 -68,-15 -7,7 53,45 83,51 16,4 38,11 49,15 75,34 454,127 640,158 190,32 384,52 440,45 17,-3 48,-6 70,-8 z m 163,8 c -10,-2 -26,-2 -35,0 -10,3 -2,5 17,5 19,0 27,-2 18,-5 z m 75,-10 c -7,-2 -21,-2 -30,0 -10,3 -4,5 12,5 17,0 24,-2 18,-5 z m 267,-3 c 0,-6 -11,-8 -27,-4 -40,10 -41,14 -5,14 18,0 32,-5 32,-10 z m -185,-10 c 3,-5 2,-10 -4,-10 -5,0 -13,5 -16,10 -3,6 -2,10 4,10 5,0 13,-4 16,-10 z m 242,-6 c -3,-3 -12,-4 -19,-1 -8,3 -5,6 6,6 11,1 17,-2 13,-5 z m -152,-14 20,-9 -20,1 c -11,0 -31,4 -45,8 l -25,8 h 25 c 14,0 34,-3 45,-8 z m 182,-37 c 29,-10 53,-22 53,-27 0,-11 -53,3 -61,16 -4,6 -11,8 -17,4 -6,-3 -13,-2 -17,4 -4,6 -10,8 -15,5 -4,-3 -19,-1 -32,4 -45,18 30,13 89,-6 z m 174,-4 c 19,-6 40,-13 48,-15 8,-3 12,-6 10,-9 -5,-5 -109,24 -109,31 0,7 15,5 51,-7 z m 114,-39 c 7,-12 -2,-12 -30,0 -19,8 -19,9 2,9 12,1 25,-3 28,-9 z m -2715,-25 c -46,-18 -64,-17 -25,0 17,8 37,14 45,14 8,0 -1,-7 -20,-14 z m 1743,8 c -7,-2 -21,-2 -30,0 -10,3 -4,5 12,5 17,0 24,-2 18,-5 z m 180,0 c -13,-2 -33,-2 -45,0 -13,2 -3,4 22,4 25,0 35,-2 23,-4 z m 120,0 c -7,-2 -19,-2 -25,0 -7,3 -2,5 12,5 14,0 19,-2 13,-5 z m 562,-3 c 13,-5 14,-9 5,-9 -8,0 -24,4 -35,9 -13,5 -14,9 -5,9 8,0 24,-4 35,-9 z m 220,-15 c 11,-7 52,-24 90,-38 39,-14 86,-32 105,-39 19,-7 51,-23 70,-37 19,-13 26,-20 15,-16 -11,4 -47,18 -80,30 -33,13 -89,36 -125,52 -36,17 -86,38 -112,47 -27,10 -48,20 -48,23 0,8 64,-8 85,-22 z m -1278,9 c -3,-3 -12,-4 -19,-1 -8,3 -5,6 6,6 11,1 17,-2 13,-5 z m -1647,-9 c 0,-5 -68,-35 -79,-35 -8,1 61,39 72,40 4,0 7,-2 7,-5 z m 1553,-2 c -13,-2 -35,-2 -50,0 -16,2 -5,4 22,4 28,0 40,-2 28,-4 z m -168,-19 c -194,-31 -561,-120 -736,-179 -87,-30 -103,-27 -22,4 208,80 675,188 813,189 19,0 -5,-7 -55,-14 z m 1494,-20 c 58,-20 134,-49 168,-65 34,-16 87,-38 117,-50 31,-11 58,-25 61,-30 10,-15 -4,-11 -74,21 -36,16 -140,58 -231,94 -184,73 -201,84 -41,30 z m -3166,-95 c -11,-12 -29,-19 -39,-17 -15,2 -11,7 16,20 46,23 49,22 23,-3 z m 3645,-106 c 13,-8 22,-17 19,-19 -5,-5 -87,35 -87,43 0,7 43,-8 68,-24 z m 81,11 c 13,-12 -8,-10 -29,2 l -25,15 25,-7 c 14,-3 27,-8 29,-10 z m 177,-99 c 10,-8 15,-14 9,-14 -5,0 -19,6 -29,14 -11,8 -15,15 -10,15 6,0 19,-7 30,-15 z M 2230,6425 c -6,-15 -13,-25 -17,-21 -3,3 0,17 7,31 17,32 24,26 10,-10 z m -109,-241 c -11,-27 -20,-43 -20,-37 -1,17 30,95 36,90 2,-3 -5,-26 -16,-53 z m 2839,-45 c 288,-16 488,-62 695,-158 217,-102 355,-232 450,-426 83,-169 99,-247 100,-490 0,-299 -41,-470 -161,-675 -48,-81 -188,-226 -276,-285 -121,-82 -309,-154 -503,-194 l -90,-18 -6,-534 c -3,-333 -9,-545 -16,-564 -46,-132 -128,-205 -263,-234 -40,-9 -232,-11 -710,-9 -651,3 -655,3 -714,25 -71,27 -121,71 -150,133 l -21,45 -3,1554 c -2,1028 1,1573 8,1610 14,75 39,120 89,158 47,37 95,52 196,63 109,11 1168,11 1375,-1 z m 3261,-11 c 135,-45 188,-125 200,-297 4,-58 8,-744 8,-1524 l 1,-1417 23,4 c 91,20 692,97 710,91 7,-2 24,-6 38,-9 42,-9 51,-46 47,-202 -3,-120 -6,-143 -23,-166 -46,-62 26,-59 -1270,-56 l -1180,3 -58,23 c -74,30 -110,61 -139,120 l -23,47 v 1595 c 0,1325 2,1602 14,1634 32,93 123,151 259,165 42,5 363,8 712,7 547,-2 641,-4 681,-18 z m 1588,-72 c 105,-190 248,-618 310,-931 80,-399 98,-782 56,-1186 -18,-173 -50,-364 -76,-454 -38,-129 -141,-419 -176,-495 -19,-41 -35,-87 -36,-102 -1,-14 -5,-24 -8,-22 -3,2 -11,-8 -18,-22 -16,-35 -13,-44 4,-14 23,40 17,16 -16,-67 -43,-110 -193,-398 -274,-528 -281,-450 -652,-849 -1060,-1142 -63,-44 -128,-88 -145,-97 -17,-8 -48,-25 -68,-37 -55,-33 -29,-10 82,71 392,287 755,651 1033,1035 77,108 149,221 104,165 -19,-24 -154,-204 -224,-299 -71,-98 -355,-411 -372,-411 -5,0 -46,-34 -90,-76 -44,-41 -143,-129 -220,-195 -77,-67 -159,-138 -182,-158 -24,-21 -43,-35 -43,-32 0,3 -6,-1 -13,-9 -7,-8 -25,-22 -41,-30 -16,-8 -42,-28 -58,-43 -15,-16 -28,-26 -28,-23 0,3 -11,-6 -25,-19 -13,-14 -32,-25 -41,-25 -9,0 -40,-17 -68,-39 -248,-188 -881,-398 -1406,-465 -313,-41 -748,-50 -974,-21 -616,79 -1139,278 -1726,654 -268,172 -515,369 -655,522 l -40,44 40,-38 c 23,-20 45,-37 50,-37 5,0 -54,64 -131,143 -167,169 -298,325 -377,449 -58,90 -67,118 -11,36 129,-191 310,-397 540,-618 60,-58 100,-98 89,-91 -11,8 -37,31 -57,50 -21,19 -40,32 -43,29 -7,-6 145,-139 256,-225 211,-163 701,-454 742,-440 7,2 39,-7 72,-20 487,-193 875,-276 1425,-303 l 175,-9 -220,5 c -246,5 -257,6 -476,40 -171,26 -225,30 -139,8 216,-53 523,-85 820,-85 246,0 379,9 596,41 1519,224 2781,1337 3210,2829 71,248 143,642 131,719 -4,25 -4,24 -6,-5 0,-17 -5,-34 -9,-37 -4,-2 -5,21 -1,52 4,31 8,71 9,87 1,26 3,27 10,10 8,-19 9,-19 9,3 1,12 -4,22 -10,22 -6,0 -8,9 -4,21 4,11 8,64 10,117 2,53 8,111 13,127 5,17 5,46 1,65 -4,19 -10,118 -14,220 -5,102 -10,210 -12,240 -3,30 -5,67 -6,83 -1,15 -6,27 -10,27 -5,0 -6,24 -2,53 3,28 2,47 -2,40 -5,-7 -8,15 -8,50 0,34 -10,105 -22,157 -12,52 -28,127 -37,165 -9,39 -18,81 -21,95 l -6,25 15,-25 c 29,-48 17,5 -35,146 -28,76 -56,157 -64,179 -7,22 -22,62 -34,88 -30,69 -9,49 38,-37 z m -7739,-8 c 0,-18 -4,-39 -9,-47 -6,-10 -9,1 -9,32 1,26 5,47 10,47 4,0 8,-15 8,-32 z m 7710,-95 c -1,-23 -6,-17 -25,31 -31,75 -31,80 0,34 14,-20 25,-50 25,-65 z m -7396,-63 c -196,-517 -279,-1039 -253,-1599 10,-228 30,-385 75,-611 89,-442 182,-732 348,-1090 77,-165 87,-190 61,-156 -8,11 -15,15 -15,10 0,-6 21,-42 48,-81 26,-38 52,-77 57,-86 214,-337 397,-570 635,-808 80,-80 178,-175 218,-210 51,-45 70,-68 64,-77 -7,-10 -37,12 -118,85 -141,128 -265,233 -275,233 -35,0 101,-173 210,-268 43,-37 93,-80 112,-95 52,-43 13,-20 -84,51 -186,134 -458,371 -527,459 -14,18 -73,86 -133,152 -179,200 -317,390 -453,624 -38,65 -88,151 -111,190 -65,111 -111,228 -153,392 -21,82 -38,151 -36,152 1,2 13,-21 27,-50 13,-28 27,-54 30,-57 3,-3 6,-12 6,-20 0,-9 8,-37 18,-63 13,-35 21,-44 27,-35 6,9 7,5 3,-10 -4,-15 -1,-24 10,-28 9,-4 22,-19 30,-35 22,-42 17,-50 -5,-9 -25,46 -25,34 1,-24 12,-28 24,-44 31,-40 8,5 9,1 5,-10 -4,-10 -3,-15 3,-11 11,7 93,-152 85,-165 -3,-4 -2,-16 1,-25 5,-12 9,-13 14,-5 4,7 35,-37 75,-107 131,-226 458,-672 479,-652 3,3 -38,62 -91,130 -197,250 -395,567 -534,854 -98,203 -136,296 -216,525 -52,149 -65,198 -66,252 -1,37 -4,68 -7,68 -10,0 -10,129 0,135 6,3 10,14 9,23 0,14 -2,14 -8,-3 -7,-16 -8,-15 -13,10 -10,59 -9,403 2,550 40,548 179,1081 411,1574 29,61 53,110 55,108 2,-2 -21,-68 -52,-147 z m -334,27 c 0,-5 -4,-5 -10,-2 -5,3 -10,14 -10,23 0,15 2,15 10,2 5,-8 10,-19 10,-23 z m 7780,-43 c 0,-8 -4,-12 -10,-9 -5,3 -10,10 -10,16 0,5 5,9 10,9 6,0 10,-7 10,-16 z m 47,-102 c 12,-35 17,-70 9,-61 -2,2 -11,28 -20,58 -18,60 -10,62 11,3 z m 370,-1824 c -7,-241 -24,-359 -88,-612 -44,-176 -95,-334 -141,-441 -128,-296 -254,-528 -386,-710 -76,-104 -70,-89 21,50 61,95 223,421 285,575 136,337 251,791 277,1090 10,124 27,260 32,260 3,0 3,-96 0,-212 z m -277,-65 c -41,-204 -88,-389 -97,-380 -2,3 7,47 21,99 13,51 34,145 46,208 34,188 44,227 48,203 2,-13 -6,-71 -18,-130 z m -103,-415 c -3,-8 -6,-5 -6,6 -1,11 2,17 5,13 3,-3 4,-12 1,-19 z m -27,-93 c -12,-36 -24,-65 -26,-63 -2,2 6,34 18,71 12,36 24,65 26,62 2,-2 -6,-34 -18,-70 z m -40,-112 c -11,-17 -11,-17 -6,0 3,10 6,24 7,30 0,9 2,9 5,0 3,-7 0,-20 -6,-30 z m -43,-125 c -50,-131 -77,-192 -83,-185 -3,3 3,22 14,44 10,21 36,84 57,140 22,56 41,100 43,98 2,-2 -12,-46 -31,-97 z m 435,-73 c -4,-38 -50,-183 -51,-163 -1,6 14,70 40,171 13,50 18,47 11,-8 z m -126,-193 c -9,-23 -13,-42 -11,-42 8,0 -154,-318 -165,-325 -6,-4 15,46 48,112 32,65 76,160 97,210 40,94 57,120 31,45 z m 69,-24 c -35,-158 -242,-675 -262,-655 -3,4 16,50 42,104 66,137 142,336 195,511 22,73 37,98 25,40 z m -80,-100 c -94,-319 -293,-721 -501,-1011 -27,-38 -56,-80 -65,-93 -48,-73 -244,-295 -360,-409 -126,-122 -348,-310 -400,-338 -13,-7 -53,-34 -89,-61 -137,-102 -485,-292 -654,-357 -106,-41 -136,-57 -133,-71 3,-18 -253,-104 -263,-88 -8,13 -126,-8 -205,-37 -41,-15 -297,-60 -505,-89 -128,-18 -611,-29 -670,-15 l -35,8 45,6 c 25,4 113,16 195,27 197,27 476,83 595,119 52,16 140,41 195,56 403,108 737,253 1137,493 247,149 346,218 550,383 249,203 507,466 679,694 178,234 419,649 484,832 30,83 29,53 0,-49 z m 32,30 c -3,-8 -6,-5 -6,6 -1,11 2,17 5,13 3,-3 4,-12 1,-19 z M 2418,2246 c 24,-38 41,-70 39,-72 -12,-12 -60,46 -96,115 -73,141 -43,118 57,-43 z m -51,-190 c 59,-51 20,-162 -72,-205 -120,-56 -214,-7 -185,97 26,100 187,168 257,108 z m 275,-121 c 342,-434 752,-788 1218,-1050 80,-45 110,-63 216,-125 117,-69 266,-150 276,-150 6,0 19,-6 27,-14 9,-8 68,-37 131,-66 63,-29 120,-56 125,-60 19,-15 390,-158 480,-185 84,-25 144,-54 85,-41 -14,3 -97,20 -185,37 -183,36 -412,100 -565,158 -250,95 -389,154 -442,186 -31,19 -59,35 -63,35 -11,0 -221,126 -320,193 -258,173 -612,494 -807,732 -71,88 -249,328 -265,360 -13,25 -25,132 -14,119 4,-5 51,-63 103,-129 z M 955,2046 c 70,-30 83,-120 24,-170 -93,-79 -223,43 -148,138 36,45 70,54 124,32 z m 8795,-93 c -18,-32 -39,-65 -47,-73 -19,-18 -16,-12 31,68 47,78 59,82 16,5 z M 1006,1370 c -42,-132 -76,-249 -76,-260 0,-33 37,-62 167,-128 109,-55 127,-69 166,-120 24,-31 47,-64 52,-72 8,-13 7,-13 -11,0 -10,8 -24,20 -31,27 -7,6 -151,57 -320,113 -170,56 -312,106 -318,111 -6,6 3,64 25,157 18,81 35,159 38,174 12,77 -28,105 -137,94 -103,-10 -94,8 17,33 53,12 187,48 297,80 152,44 201,54 203,44 2,-7 -31,-121 -72,-253 z m 302,214 c 29,-20 51,-39 48,-41 -6,-6 -126,18 -131,27 -7,12 7,50 19,50 6,0 35,-16 64,-36 z m 8102,-108 c 0,-2 -8,-10 -17,-17 -16,-13 -17,-12 -4,4 13,16 21,21 21,13 z M 3698,1312 c 82,-65 115,-99 45,-46 -131,97 -183,139 -183,147 0,5 12,-2 28,-14 15,-12 64,-51 110,-87 z m -467,42 c 15,-18 200,-163 269,-212 25,-17 56,-41 70,-53 l 25,-21 -30,17 c -36,21 -206,149 -290,218 -79,64 -81,67 -68,67 6,0 16,-7 24,-16 z M 709,859 c 35,-12 60,-26 58,-33 -3,-12 -205,-126 -222,-126 -5,0 4,9 22,20 31,19 39,36 58,128 4,17 10,32 14,32 4,0 35,-9 70,-21 z M 5385,351 c 290,-46 529,-64 840,-65 149,0 321,5 384,12 63,6 116,10 118,8 3,-3 -180,-38 -297,-55 -79,-13 -240,-28 -375,-36 -69,-5 -131,-2 -200,9 -189,30 -452,87 -555,121 -74,25 -75,25 -25,20 28,-2 77,-9 110,-14 z M 7370,250 c -20,-13 -33,-13 -25,0 3,6 14,10 23,10 15,0 15,-2 2,-10 z m -122,-27 c -10,-2 -26,-2 -35,0 -10,3 -2,5 17,5 19,0 27,-2 18,-5 z m -73,-13 c -3,-5 -13,-10 -21,-10 -8,0 -12,5 -9,10 3,6 13,10 21,10 8,0 12,-4 9,-10 z"
       id="path8"
       inkscape:connector-curvature="0" />
    <path
       d="M 4760,4291 V 2760 h 43 c 23,0 59,5 79,11 73,20 68,-99 68,1554 v 1485 h -34 c -18,0 -61,3 -95,6 l -61,7 z"
       id="path10"
       inkscape:connector-curvature="0" />
    <path
       d="m 5170,5005 v -777 l 43,7 c 122,21 260,81 366,161 193,145 301,443 271,744 -28,265 -140,439 -355,548 -65,33 -201,75 -277,86 l -48,7 z"
       id="path12"
       inkscape:connector-curvature="0" />
    <path
       d="m 8020,4385 c 0,-1465 1,-1545 18,-1545 9,0 52,5 95,12 l 77,11 v 1481 c 0,988 -4,1493 -10,1518 -15,52 -42,68 -117,68 h -63 z"
       id="path14"
       inkscape:connector-curvature="0" />
    <path
       d="m 9801,2719 c -18,-33 -31,-62 -29,-64 2,-2 19,23 37,56 18,33 31,62 29,65 -3,2 -20,-23 -37,-57 z"
       id="path16"
       inkscape:connector-curvature="0" />
    <path
       d="m 9746,2613 c -6,-14 -5,-15 5,-6 7,7 10,15 7,18 -3,3 -9,-2 -12,-12 z"
       id="path18"
       inkscape:connector-curvature="0" />
    <path
       d="m 9716,2557 c -45,-78 -76,-140 -61,-122 22,27 88,146 83,150 -2,2 -12,-11 -22,-28 z"
       id="path20"
       inkscape:connector-curvature="0" />
    <path
       d="m 9590,2340 c -6,-11 -8,-20 -6,-20 3,0 10,9 16,20 6,11 8,20 6,20 -3,0 -10,-9 -16,-20 z"
       id="path22"
       inkscape:connector-curvature="0" />
    <path
       d="m 5158,603 c 6,-2 18,-2 25,0 6,3 1,5 -13,5 -14,0 -19,-2 -12,-5 z"
       id="path24"
       inkscape:connector-curvature="0" />
    <path
       d="m 1993,3680 c 5,-31 17,-36 17,-7 0,15 -4,27 -10,27 -5,0 -9,-9 -7,-20 z"
       id="path26"
       inkscape:connector-curvature="0" />
    <path
       d="m 2031,3464 c 0,-11 3,-14 6,-6 3,7 2,16 -1,19 -3,4 -6,-2 -5,-13 z"
       id="path28"
       inkscape:connector-curvature="0" />
    <path
       d="m 2041,3435 c 1,-19 18,-51 18,-35 0,8 -4,22 -9,30 -5,8 -9,11 -9,5 z"
       id="path30"
       inkscape:connector-curvature="0" />
    <path
       d="m 2086,3321 c -7,-10 34,-135 46,-139 4,-2 6,-7 3,-12 -6,-10 64,-185 129,-324 63,-135 139,-273 143,-260 2,6 -26,66 -62,134 -36,69 -65,128 -65,131 0,4 -18,45 -40,90 -22,46 -40,92 -40,104 0,12 -4,25 -9,30 -12,14 -36,87 -33,103 2,6 -2,12 -8,12 -5,0 -9,3 -9,8 3,19 -2,33 -11,27 -11,-7 -34,71 -26,91 6,15 -9,20 -18,5 z"
       id="path32"
       inkscape:connector-curvature="0" />
    <path
       d="m 2230,3020 c 0,-8 5,-22 10,-30 9,-13 10,-13 10,0 0,8 -5,22 -10,30 -9,13 -10,13 -10,0 z"
       id="path34"
       inkscape:connector-curvature="0" />
    <path
       d="m 2240,2743 c 1,-5 12,-28 25,-53 29,-54 33,-36 5,20 -19,37 -31,50 -30,33 z"
       id="path36"
       inkscape:connector-curvature="0" />
    <path
       d="m 2430,2538 c 0,-14 69,-128 70,-115 0,10 -61,127 -66,127 -2,0 -4,-6 -4,-12 z"
       id="path38"
       inkscape:connector-curvature="0" />
    <path
       d="m 2900,1792 c 0,-5 7,-15 15,-22 8,-7 15,-8 15,-2 0,5 -7,15 -15,22 -8,7 -15,8 -15,2 z"
       id="path40"
       inkscape:connector-curvature="0" />
    <path
       d="m 5023,8653 c -18,-2 -33,-8 -33,-12 0,-5 -16,-8 -35,-7 -19,0 -36,-3 -37,-9 -2,-5 18,-9 44,-10 25,0 44,3 41,8 -2,4 6,7 19,7 13,1 37,7 53,15 29,13 29,13 5,13 -14,-1 -40,-3 -57,-5 z"
       id="path42"
       inkscape:connector-curvature="0" />
    <path
       d="m 4735,8628 c -117,-28 -329,-97 -322,-105 2,-2 23,3 45,11 37,13 145,42 292,78 25,6 52,15 60,19 21,12 -23,10 -75,-3 z"
       id="path44"
       inkscape:connector-curvature="0" />
    <path
       d="m 4800,8608 c 0,-4 6,-8 14,-8 8,0 17,-6 19,-12 3,-7 6,-3 6,9 1,16 -4,21 -19,20 -11,-1 -20,-5 -20,-9 z"
       id="path46"
       inkscape:connector-curvature="0" />
    <path
       d="m 4633,8560 c -4,-4 -25,-13 -46,-20 -21,-7 -37,-14 -35,-15 4,-4 137,31 144,37 7,8 -55,5 -63,-2 z"
       id="path48"
       inkscape:connector-curvature="0" />
    <path
       d="m 4280,8440 c -9,-6 -10,-10 -3,-10 6,0 15,5 18,10 8,12 4,12 -15,0 z"
       id="path50"
       inkscape:connector-curvature="0" />
    <path
       d="m 7586,8382 c -6,-10 43,-33 124,-58 30,-9 60,-21 66,-26 6,-4 35,-17 65,-27 30,-11 87,-34 128,-51 41,-16 76,-28 79,-26 2,3 -7,11 -21,17 -15,7 -24,16 -21,20 3,5 -3,6 -13,2 -10,-3 -15,-2 -10,2 10,12 -164,84 -215,89 -51,5 -80,15 -73,26 3,4 -17,15 -44,24 -58,19 -58,19 -65,8 z"
       id="path52"
       inkscape:connector-curvature="0" />
    <path
       d="m 4110,8370 c -12,-8 -11,-10 8,-10 12,0 22,5 22,10 0,13 -11,13 -30,0 z"
       id="path54"
       inkscape:connector-curvature="0" />
    <path
       d="m 4014,8324 c -18,-14 -18,-14 6,-3 31,14 36,19 24,19 -6,0 -19,-7 -30,-16 z"
       id="path56"
       inkscape:connector-curvature="0" />
    <path
       d="m 3687,8173 c -4,-3 -7,-11 -7,-17 0,-6 5,-5 12,2 6,6 9,14 7,17 -3,3 -9,2 -12,-2 z"
       id="path58"
       inkscape:connector-curvature="0" />
    <path
       d="m 3620,8120 c -9,-6 -10,-10 -3,-10 6,0 15,5 18,10 8,12 4,12 -15,0 z"
       id="path60"
       inkscape:connector-curvature="0" />
    <path
       d="m 8250,8116 c 0,-3 14,-12 30,-21 17,-9 30,-13 30,-11 0,3 -13,12 -30,21 -16,9 -30,13 -30,11 z"
       id="path62"
       inkscape:connector-curvature="0" />
    <path
       d="m 8315,8071 c -7,-12 12,-24 25,-16 11,7 4,25 -10,25 -5,0 -11,-4 -15,-9 z"
       id="path64"
       inkscape:connector-curvature="0" />
    <path
       d="m 3393,7964 -28,-26 33,22 c 29,20 39,30 28,30 -3,0 -18,-12 -33,-26 z"
       id="path66"
       inkscape:connector-curvature="0" />
    <path
       d="m 3384,7915 c -10,-8 -14,-15 -8,-15 6,0 17,7 24,15 16,19 9,19 -16,0 z"
       id="path68"
       inkscape:connector-curvature="0" />
    <path
       d="m 8620,7876 c 0,-2 8,-10 18,-17 15,-13 16,-12 3,4 -13,16 -21,21 -21,13 z"
       id="path70"
       inkscape:connector-curvature="0" />
    <path
       d="m 8686,7822 c 51,-44 134,-99 134,-87 0,8 -123,95 -134,95 -6,0 -6,-3 0,-8 z"
       id="path72"
       inkscape:connector-curvature="0" />
    <path
       d="m 3205,7779 c -72,-59 -137,-120 -133,-125 5,-4 46,26 102,76 22,19 53,47 70,62 49,43 17,32 -39,-13 z"
       id="path74"
       inkscape:connector-curvature="0" />
    <path
       d="m 2938,7530 c -36,-38 -63,-71 -61,-74 5,-5 143,129 143,139 0,16 -23,-2 -82,-65 z"
       id="path76"
       inkscape:connector-curvature="0" />
    <path
       d="m 8982,7584 c 4,-15 88,-88 93,-82 7,7 -57,69 -69,68 -5,-1 -13,4 -18,12 -5,7 -8,8 -6,2 z"
       id="path78"
       inkscape:connector-curvature="0" />
    <path
       d="m 9115,7460 c 3,-5 8,-10 11,-10 2,0 4,5 4,10 0,6 -5,10 -11,10 -5,0 -7,-4 -4,-10 z"
       id="path80"
       inkscape:connector-curvature="0" />
    <path
       d="m 2547,6978 c -10,-11 -16,-22 -13,-26 6,-6 35,27 36,41 0,10 -2,8 -23,-15 z"
       id="path82"
       inkscape:connector-curvature="0" />
    <path
       d="m 2450,6815 c -7,-9 -11,-17 -9,-20 3,-2 10,5 17,15 14,24 10,26 -8,5 z"
       id="path84"
       inkscape:connector-curvature="0" />
    <path
       d="m 2618,6523 c -59,-78 -132,-183 -147,-210 -21,-41 -4,-24 34,35 21,31 64,91 95,132 62,83 74,100 66,100 -3,0 -24,-26 -48,-57 z"
       id="path86"
       inkscape:connector-curvature="0" />
    <path
       d="m 2249,5934 c -5,-15 -12,-31 -16,-37 -3,-6 -1,-7 4,-4 11,7 36,67 27,67 -2,0 -9,-12 -15,-26 z"
       id="path88"
       inkscape:connector-curvature="0" />
    <path
       d="m 1877,5097 c -11,-29 -9,-43 4,-30 6,6 9,19 7,29 -3,18 -4,18 -11,1 z"
       id="path90"
       inkscape:connector-curvature="0" />
    <path
       d="m 1855,4877 c -4,-26 -5,-50 -2,-53 8,-8 20,60 15,83 -3,10 -8,-4 -13,-30 z"
       id="path92"
       inkscape:connector-curvature="0" />
    <path
       d="m 10321,4764 c 0,-11 3,-14 6,-6 3,7 2,16 -1,19 -3,4 -6,-2 -5,-13 z"
       id="path94"
       inkscape:connector-curvature="0" />
    <path
       d="m 10331,4704 c 0,-11 3,-14 6,-6 3,7 2,16 -1,19 -3,4 -6,-2 -5,-13 z"
       id="path96"
       inkscape:connector-curvature="0" />
    <path
       d="m 1877,4328 c -3,-10 -2,-20 3,-23 6,-4 10,-16 11,-28 0,-12 3,-17 5,-10 3,6 1,26 -4,44 -6,25 -10,29 -15,17 z"
       id="path98"
       inkscape:connector-curvature="0" />
    <path
       d="m 1883,4215 c 0,-22 2,-30 4,-17 2,12 2,30 0,40 -3,9 -5,-1 -4,-23 z"
       id="path100"
       inkscape:connector-curvature="0" />
    <path
       d="m 1851,3784 c 0,-11 3,-14 6,-6 3,7 2,16 -1,19 -3,4 -6,-2 -5,-13 z"
       id="path102"
       inkscape:connector-curvature="0" />
    <path
       d="m 1862,3710 c 0,-14 2,-19 5,-12 2,6 2,18 0,25 -3,6 -5,1 -5,-13 z"
       id="path104"
       inkscape:connector-curvature="0" />
    <path
       d="m 1412,2750 c -12,-5 -27,-21 -34,-35 -11,-26 -6,-45 24,-87 10,-14 9,-21 -10,-38 -29,-27 -28,-61 3,-98 14,-17 25,-43 25,-58 0,-16 6,-36 13,-44 15,-20 287,-234 315,-249 11,-6 46,-11 76,-11 50,0 60,4 95,35 49,45 67,106 48,162 -12,36 -207,298 -249,336 -27,23 -59,22 -92,-4 l -28,-22 -41,40 c -54,52 -97,83 -111,82 -6,0 -21,-4 -34,-9 z m 295,-357 c -26,-26 -28,-27 -44,-10 -17,17 -16,19 12,42 26,21 32,22 45,9 13,-12 11,-17 -13,-41 z m 123,-113 c 0,-5 -4,-10 -10,-10 -5,0 -10,5 -10,10 0,6 5,10 10,10 6,0 10,-4 10,-10 z"
       id="path106"
       inkscape:connector-curvature="0" />
  </g>
</svg>
